M48
;Layer_Color=9474304
;FILE_FORMAT=4:4
METRIC,LZ
;TYPE=PLATED
T1F00S00C0.2000
T2F00S00C0.3000
T3F00S00C1.0000
T4F00S00C1.1000
;TYPE=NON_PLATED
T5F00S00C1.0250
%
T01
X00051685Y00023886
X00073752Y00027386
X00058752Y00057386
X00028752
X00025515Y00105624
X00052878Y00096172
X00058752Y00117386
X00073752Y00087386
X00043752Y00147386
X00013752
X00088752Y00117386
X00118752
X00148752
X00163183Y00121745
X00180743Y00124643
X00201031Y00122939
X00218421Y00116801
X00238752Y00117386
X0023223Y00106401
X00240947Y00092485
X00240755Y00045538
X00234734Y00031863
X00226945Y00020476
X00208874Y00013315
X00183471Y00012122
X00166204Y00012659
X00152272Y00019112
X00133752Y00027386
X00133348Y00042469
X00103752Y00027386
X00088752Y00057386
X00133752Y00087386
X00141702Y00105549
X00133752Y00147386
X00253752Y00027386
X00283752
X00298752Y00057386
Y00177386
Y00237386
X00268752
X00238752
X00208752
Y00297386
X00183766Y00299858
X00171617Y00290448
X00176091Y00279625
X00163752Y00267386
X00133752
X00131643Y00258135
X00124142Y00255407
X00116811Y00255919
X00103752Y00267386
X00095966Y0029445
X00087828Y00292638
X00106968Y00315457
X00106586Y00331108
X00101331
X00122081Y00327888
X00121402Y00320858
X00120903Y00337071
X00139827Y003369
X0013045Y00347129
X00119379Y00356
X00103752Y00387386
X00132837Y00396741
X00145282Y00380715
X00148752Y00417386
X00178752
X00208752
X00212283Y00394354
X00212113Y00378158
X00227457
X00238752Y00417386
X00268752
X00298752
Y00357386
Y00297386
X00268752
X00238752
X00253752Y00327386
X00163865Y00313884
X00163524Y00307576
X00155852Y00304678
X00155Y00310475
X00142725Y00281321
X00137451Y00194348
X00131056Y00183325
X00120201
X00118752Y00177386
X00109935Y00183325
X00105139Y00193507
X00094942Y00197653
X00094932Y00234645
X00148752Y00177386
X00118752Y00417386
X00088752
X00058752
X00041455Y00412426
X00028752Y00417386
X00026964Y00402026
X00013752Y00387386
X00042819Y00382591
X00052707Y00384636
X00058752Y00357386
X00071038Y00349229
X00071152Y00332632
X00073752Y00327386
X00065404Y00327334
X00056493Y00328835
X00043752Y00327386
X00040924Y00316776
X00041323Y00304342
X00043775Y00295501
X00049256Y00310322
X00070554Y00316025
X00070581Y00304608
X00082535Y00313311
X00082181Y00319086
X00086785Y00316562
X00082901Y00290827
X00081331Y00278347
X00075259Y00277876
X00078608Y0026914
X00078548Y00237516
X00078548Y00229354
X00082018Y00225111
X00079645Y00198635
X00086294Y0018977
X00078792Y00182439
X00064812Y0018295
X00063789Y00198976
X00026Y00186
X00012302Y00184825
X00013752Y00207386
X00028752Y00237386
X00037844Y00269436
X00039327Y00278163
X00013752Y00267386
Y00327386
X00028752Y00357386
X00062597Y00340446
T02
X00110317Y00067808
X00265317
X00055511Y00263489
X0006275Y00294387
T03
X00085598Y00017284
X00094942Y00172988
Y00257993
X00159773Y00216959
T04
X00080748Y00140073
X00106148
X0025382
X0027922
X0028962Y00205032
X0026422
X0026362Y00271198
X0028902
X0028962Y00337365
X0026422
X00276111Y0039558
X00250711
X00225311
X0019623
X0017083
X0014543
X00117629Y0039658
X00092229
X00066829
X00041229
T05
X00024826Y00314628
M30
