G04*
G04 #@! TF.GenerationSoftware,Altium Limited,Altium Designer,21.6.4 (81)*
G04*
G04 Layer_Color=32768*
%FSLAX44Y44*%
%MOMM*%
G71*
G04*
G04 #@! TF.SameCoordinates,6DE2C221-B64E-46BB-9673-D02FF606FF1F*
G04*
G04*
G04 #@! TF.FilePolarity,Positive*
G04*
G01*
G75*
%ADD10C,0.1000*%
%ADD59C,0.2000*%
%ADD62C,0.3000*%
%ADD68C,0.0500*%
D10*
X102942Y172988D02*
G03*
X102942Y172988I-8000J0D01*
G01*
X93598Y17284D02*
G03*
X93598Y17284I-8000J0D01*
G01*
X102942Y257993D02*
G03*
X102942Y257993I-8000J0D01*
G01*
X167773Y216959D02*
G03*
X167773Y216959I-8000J0D01*
G01*
X94982Y210861D02*
Y220861D01*
X89982Y215861D02*
X99982D01*
X118953Y270406D02*
X127952D01*
X123453Y265906D02*
Y274906D01*
X56000Y299500D02*
Y308500D01*
X51500Y304000D02*
X60500D01*
X135307Y285858D02*
Y294858D01*
X130807Y290358D02*
X139807D01*
X220147Y337365D02*
X235147D01*
X227647Y329865D02*
Y344865D01*
X47518Y206611D02*
Y225111D01*
X82018Y206611D02*
Y225111D01*
X47518D02*
X82018D01*
X47518Y206611D02*
X82018D01*
X59768Y215861D02*
X69768D01*
X64768Y210861D02*
Y220861D01*
X91331Y305358D02*
X101331D01*
X96331Y300358D02*
Y310358D01*
X155274Y195229D02*
X164273D01*
X159773Y190729D02*
Y199729D01*
X220147Y205032D02*
X235147D01*
X227647Y197532D02*
Y212532D01*
Y263698D02*
Y278698D01*
X220147Y271198D02*
X235147D01*
X168830Y395580D02*
X172830D01*
X170830Y393580D02*
Y397580D01*
X24826Y300028D02*
Y315028D01*
X17326Y307528D02*
X32326D01*
X140807Y321721D02*
Y336721D01*
X133307Y329221D02*
X148307D01*
X140807Y300858D02*
Y309858D01*
X136307Y305358D02*
X145307D01*
X120791Y211361D02*
Y220361D01*
X116291Y215861D02*
X125291D01*
X24795Y274094D02*
Y283094D01*
X20295Y278594D02*
X29295D01*
X74659Y340606D02*
X83659D01*
X79159Y336106D02*
Y345106D01*
X96331Y341872D02*
Y350872D01*
X91831Y346372D02*
X100831D01*
X82691Y190145D02*
X91692D01*
X87191Y185645D02*
Y194645D01*
X62030Y253993D02*
X71030D01*
X66529Y249493D02*
Y258493D01*
X184091Y271198D02*
X193091D01*
X188591Y266698D02*
Y275698D01*
X184091Y289448D02*
X193091D01*
X188591Y284948D02*
Y293948D01*
X184091Y252948D02*
X193091D01*
X188591Y248448D02*
Y257448D01*
X184091Y189773D02*
X193091D01*
X188591Y185273D02*
Y194273D01*
X184091Y205032D02*
X193091D01*
X188591Y200532D02*
Y209532D01*
X184091Y220375D02*
X193091D01*
X188591Y215875D02*
Y224875D01*
X184091Y323002D02*
X193091D01*
X188591Y318502D02*
Y327502D01*
X184091Y337365D02*
X193091D01*
X188591Y332865D02*
Y341865D01*
X184091Y352627D02*
X193091D01*
X188591Y348127D02*
Y357127D01*
X250711Y393580D02*
Y397580D01*
X248711Y395580D02*
X252711D01*
X51500Y317000D02*
X60500D01*
X56000Y312500D02*
Y321500D01*
X163808Y324721D02*
Y333721D01*
X159308Y329221D02*
X168308D01*
X126924Y193709D02*
Y202709D01*
X122424Y198209D02*
X131424D01*
X114373Y193709D02*
Y202709D01*
X109873Y198209D02*
X118873D01*
X57018Y190145D02*
X66018D01*
X61518Y185645D02*
Y194645D01*
X33576Y128270D02*
G03*
X33576Y136270I0J4000D01*
G01*
Y158270D02*
G03*
X33576Y166270I0J4000D01*
G01*
X0Y20000D02*
G03*
X20000Y-0I20000J0D01*
G01*
X302000D02*
G03*
X322000Y20000I0J20000D01*
G01*
X322000Y421000D02*
G03*
X302000Y441000I-20000J0D01*
G01*
X20000D02*
G03*
X0Y421000I0J-20000D01*
G01*
X0Y20000D02*
Y128270D01*
X0Y166270D02*
Y421000D01*
X0Y128270D02*
X33576D01*
Y136270D02*
Y158270D01*
X0Y166270D02*
X33576D01*
X20000Y441000D02*
X302000Y441000D01*
X322000Y421000D02*
X322000Y20000D01*
X20000Y-0D02*
X302000D01*
D59*
X25515Y55624D02*
Y65624D01*
X20515Y60624D02*
X30515D01*
D62*
X182817Y67808D02*
X192817D01*
X187817Y62808D02*
Y72808D01*
D68*
X82482Y198111D02*
X107482D01*
X82482Y233611D02*
X107482D01*
X82482Y198111D02*
Y233611D01*
X107482Y198111D02*
Y233611D01*
X129202Y257906D02*
Y282906D01*
X117703Y257906D02*
Y282906D01*
X129202D01*
X117703Y257906D02*
X129202D01*
X44000Y298500D02*
X68000D01*
X44000Y309500D02*
X68000D01*
Y298500D02*
Y309500D01*
X44000Y298500D02*
Y309500D01*
X123307Y295858D02*
X147307D01*
X123307Y284858D02*
X147307D01*
X123307D02*
Y295858D01*
X147307Y284858D02*
Y295858D01*
X215147Y352365D02*
X240147D01*
X215147Y322365D02*
Y352365D01*
Y322365D02*
X240147D01*
Y352365D01*
X-1485Y15624D02*
Y105624D01*
Y15624D02*
X52515D01*
Y105624D01*
X-1485D02*
X52515D01*
X122081Y279608D02*
Y331108D01*
X70581Y279608D02*
Y331108D01*
Y279608D02*
X122081D01*
X70581Y331108D02*
X122081D01*
X132429Y384580D02*
Y498580D01*
X26429Y384580D02*
X132429D01*
X26429D02*
Y498580D01*
X132429D01*
X154023Y182729D02*
Y207729D01*
X165523Y182729D02*
Y207729D01*
X154023Y182729D02*
X165523D01*
X154023Y207729D02*
X165523D01*
X239647Y190032D02*
Y220032D01*
X215647Y190032D02*
X239647D01*
X215647D02*
Y220032D01*
X239647D01*
X211647Y296198D02*
X243647D01*
X211647Y246198D02*
Y296198D01*
Y246198D02*
X243647D01*
Y296198D01*
X90294Y2808D02*
X187817D01*
X90294D02*
Y132808D01*
X285405D01*
Y2808D02*
Y132808D01*
X187817Y2808D02*
X285405D01*
X129830Y496580D02*
X211830D01*
X129830Y384580D02*
Y496580D01*
Y384580D02*
X211830D01*
Y496580D01*
X39826Y288528D02*
Y326528D01*
X9826D02*
X39826D01*
X9826Y288528D02*
Y326528D01*
Y288528D02*
X39826D01*
X156807Y315221D02*
Y344221D01*
X124807D02*
X156807D01*
X124807Y315221D02*
Y344221D01*
Y315221D02*
X156807D01*
X128807Y310858D02*
X152807D01*
X128807Y299858D02*
X152807D01*
X128807D02*
Y310858D01*
X152807Y299858D02*
Y310858D01*
X108291Y210111D02*
X133291D01*
X108291Y221611D02*
X133291D01*
Y210111D02*
Y221611D01*
X108291Y210111D02*
Y221611D01*
X12795Y284094D02*
X36795D01*
X12795Y273094D02*
X36795D01*
X12795D02*
Y284094D01*
X36795Y273094D02*
Y284094D01*
X66659Y334856D02*
Y346356D01*
X91659Y334856D02*
Y346356D01*
X66659D02*
X91659D01*
X66659Y334856D02*
X91659D01*
X90581Y333872D02*
X102081D01*
X90581Y358872D02*
X102081D01*
X90581Y333872D02*
Y358872D01*
X102081Y333872D02*
Y358872D01*
X74692Y184395D02*
Y195895D01*
X99691Y184395D02*
Y195895D01*
X74692D02*
X99691D01*
X74692Y184395D02*
X99691D01*
X79029Y248243D02*
Y259743D01*
X54029Y248243D02*
Y259743D01*
Y248243D02*
X79029D01*
X54029Y259743D02*
X79029D01*
X201091Y265448D02*
Y276948D01*
X176091Y265448D02*
Y276948D01*
Y265448D02*
X201091D01*
X176091Y276948D02*
X201091D01*
Y283698D02*
Y295198D01*
X176091Y283698D02*
Y295198D01*
Y283698D02*
X201091D01*
X176091Y295198D02*
X201091D01*
Y247198D02*
Y258698D01*
X176091Y247198D02*
Y258698D01*
Y247198D02*
X201091D01*
X176091Y258698D02*
X201091D01*
Y184023D02*
Y195523D01*
X176091Y184023D02*
Y195523D01*
Y184023D02*
X201091D01*
X176091Y195523D02*
X201091D01*
Y199282D02*
Y210782D01*
X176091Y199282D02*
Y210782D01*
Y199282D02*
X201091D01*
X176091Y210782D02*
X201091D01*
Y214625D02*
Y226125D01*
X176091Y214625D02*
Y226125D01*
Y214625D02*
X201091D01*
X176091Y226125D02*
X201091D01*
Y317252D02*
Y328752D01*
X176091Y317252D02*
Y328752D01*
Y317252D02*
X201091D01*
X176091Y328752D02*
X201091D01*
Y331615D02*
Y343115D01*
X176091Y331615D02*
Y343115D01*
Y331615D02*
X201091D01*
X176091Y343115D02*
X201091D01*
Y346877D02*
Y358377D01*
X176091Y346877D02*
Y358377D01*
Y346877D02*
X201091D01*
X176091Y358377D02*
X201091D01*
X291711Y384580D02*
Y496580D01*
X209711Y384580D02*
X291711D01*
X209711D02*
Y496580D01*
X291711D01*
X44000Y311500D02*
Y322500D01*
X68000Y311500D02*
Y322500D01*
X44000D02*
X68000D01*
X44000Y311500D02*
X68000D01*
X158308Y317221D02*
X169308D01*
X158308Y341221D02*
X169308D01*
X158308Y317221D02*
Y341221D01*
X169308Y317221D02*
Y341221D01*
X121424Y186209D02*
X132424D01*
X121424Y210209D02*
X132424D01*
X121424Y186209D02*
Y210209D01*
X132424Y186209D02*
Y210209D01*
X108873Y186209D02*
X119873D01*
X108873Y210209D02*
X119873D01*
X108873Y186209D02*
Y210209D01*
X119873Y186209D02*
Y210209D01*
X73518Y184645D02*
Y195645D01*
X49518Y184645D02*
Y195645D01*
Y184645D02*
X73518D01*
X49518Y195645D02*
X73518D01*
M02*
