G04*
G04 #@! TF.GenerationSoftware,Altium Limited,Altium Designer,21.6.4 (81)*
G04*
G04 Layer_Color=16711935*
%FSLAX44Y44*%
%MOMM*%
G71*
G04*
G04 #@! TF.SameCoordinates,6DE2C221-B64E-46BB-9673-D02FF606FF1F*
G04*
G04*
G04 #@! TF.FilePolarity,Negative*
G04*
G01*
G75*
%ADD10C,0.1000*%
G04:AMPARAMS|DCode=52|XSize=1.85mm|YSize=1.85mm|CornerRadius=0.16mm|HoleSize=0mm|Usage=FLASHONLY|Rotation=180.000|XOffset=0mm|YOffset=0mm|HoleType=Round|Shape=RoundedRectangle|*
%AMROUNDEDRECTD52*
21,1,1.8500,1.5300,0,0,180.0*
21,1,1.5300,1.8500,0,0,180.0*
1,1,0.3200,-0.7650,0.7650*
1,1,0.3200,0.7650,0.7650*
1,1,0.3200,0.7650,-0.7650*
1,1,0.3200,-0.7650,-0.7650*
%
%ADD52ROUNDEDRECTD52*%
G04:AMPARAMS|DCode=53|XSize=1.85mm|YSize=1.85mm|CornerRadius=0.7125mm|HoleSize=0mm|Usage=FLASHONLY|Rotation=180.000|XOffset=0mm|YOffset=0mm|HoleType=Round|Shape=RoundedRectangle|*
%AMROUNDEDRECTD53*
21,1,1.8500,0.4250,0,0,180.0*
21,1,0.4250,1.8500,0,0,180.0*
1,1,1.4250,-0.2125,0.2125*
1,1,1.4250,0.2125,0.2125*
1,1,1.4250,0.2125,-0.2125*
1,1,1.4250,-0.2125,-0.2125*
%
%ADD53ROUNDEDRECTD53*%
G04:AMPARAMS|DCode=54|XSize=1.7mm|YSize=1.7mm|CornerRadius=0.6375mm|HoleSize=0mm|Usage=FLASHONLY|Rotation=180.000|XOffset=0mm|YOffset=0mm|HoleType=Round|Shape=RoundedRectangle|*
%AMROUNDEDRECTD54*
21,1,1.7000,0.4250,0,0,180.0*
21,1,0.4250,1.7000,0,0,180.0*
1,1,1.2750,-0.2125,0.2125*
1,1,1.2750,0.2125,0.2125*
1,1,1.2750,0.2125,-0.2125*
1,1,1.2750,-0.2125,-0.2125*
%
%ADD54ROUNDEDRECTD54*%
%ADD55C,1.4500*%
%ADD57C,1.3000*%
D10*
X33576Y128270D02*
G03*
X33576Y136270I0J4000D01*
G01*
Y158270D02*
G03*
X33576Y166270I0J4000D01*
G01*
X0Y20000D02*
G03*
X20000Y-0I20000J0D01*
G01*
X302000D02*
G03*
X322000Y20000I0J20000D01*
G01*
X322000Y421000D02*
G03*
X302000Y441000I-20000J0D01*
G01*
X20000D02*
G03*
X0Y421000I0J-20000D01*
G01*
X0Y20000D02*
Y128270D01*
X0Y166270D02*
Y421000D01*
X0Y128270D02*
X33576D01*
Y136270D02*
Y158270D01*
X0Y166270D02*
X33576D01*
X20000Y441000D02*
X302000Y441000D01*
X322000Y421000D02*
X322000Y20000D01*
X20000Y-0D02*
X302000D01*
D52*
X289620Y337365D02*
D03*
X117629Y396580D02*
D03*
X263620Y271198D02*
D03*
X196230Y395580D02*
D03*
X264220Y205032D02*
D03*
X279220Y140073D02*
D03*
X80748D02*
D03*
X276111Y395580D02*
D03*
D53*
X264220Y337365D02*
D03*
X92229Y396580D02*
D03*
X66829D02*
D03*
X289020Y271198D02*
D03*
X170830Y395580D02*
D03*
X289620Y205032D02*
D03*
X106148Y140073D02*
D03*
X250711Y395580D02*
D03*
D54*
X41229Y396580D02*
D03*
X145430Y395580D02*
D03*
X253820Y140073D02*
D03*
X225311Y395580D02*
D03*
D55*
X94942Y172988D02*
D03*
Y257993D02*
D03*
X159773Y216959D02*
D03*
D57*
X85598Y17284D02*
D03*
M02*
