G04*
G04 #@! TF.GenerationSoftware,Altium Limited,Altium Designer,21.6.4 (81)*
G04*
G04 Layer_Color=128*
%FSLAX44Y44*%
%MOMM*%
G71*
G04*
G04 #@! TF.SameCoordinates,6DE2C221-B64E-46BB-9673-D02FF606FF1F*
G04*
G04*
G04 #@! TF.FilePolarity,Positive*
G04*
G01*
G75*
%ADD10C,0.1000*%
%ADD69C,0.0508*%
D10*
X33576Y128270D02*
G03*
X33576Y136270I0J4000D01*
G01*
Y158270D02*
G03*
X33576Y166270I0J4000D01*
G01*
X0Y20000D02*
G03*
X20000Y-0I20000J0D01*
G01*
X302000D02*
G03*
X322000Y20000I0J20000D01*
G01*
X322000Y421000D02*
G03*
X302000Y441000I-20000J0D01*
G01*
X20000D02*
G03*
X0Y421000I0J-20000D01*
G01*
X0Y20000D02*
Y128270D01*
X0Y166270D02*
Y421000D01*
X0Y128270D02*
X33576D01*
Y136270D02*
Y158270D01*
X0Y166270D02*
X33576D01*
X20000Y441000D02*
X302000Y441000D01*
X322000Y421000D02*
X322000Y20000D01*
X20000Y-0D02*
X302000D01*
D69*
X284120Y337365D02*
X295120D01*
X289620Y331865D02*
Y342865D01*
X258720Y337365D02*
X269720D01*
X264220Y331865D02*
Y342865D01*
X35729Y396580D02*
X46729D01*
X41229Y391080D02*
Y402080D01*
X112129Y396580D02*
X123129D01*
X117629Y391080D02*
Y402080D01*
X86729Y396580D02*
X97729D01*
X92229Y391080D02*
Y402080D01*
X61329Y396580D02*
X72329D01*
X66829Y391080D02*
Y402080D01*
X258120Y271198D02*
X269120D01*
X263620Y265698D02*
Y276698D01*
X283520Y271198D02*
X294520D01*
X289020Y265698D02*
Y276698D01*
X139930Y395580D02*
X150930D01*
X145430Y390080D02*
Y401080D01*
X165330Y395580D02*
X176330D01*
X170830Y390080D02*
Y401080D01*
X190730Y395580D02*
X201730D01*
X196230Y390080D02*
Y401080D01*
X89942Y172988D02*
X99942D01*
X94942Y167988D02*
Y177988D01*
X19701Y314628D02*
X29951D01*
X24826Y309503D02*
Y319753D01*
X80598Y17284D02*
X90598D01*
X85598Y12284D02*
Y22283D01*
X89942Y257993D02*
X99942D01*
X94942Y252993D02*
Y262993D01*
X284120Y205032D02*
X295120D01*
X289620Y199532D02*
Y210532D01*
X258720Y205032D02*
X269720D01*
X264220Y199532D02*
Y210532D01*
X154774Y216959D02*
X164773D01*
X159773Y211959D02*
Y221959D01*
X248320Y140073D02*
X259320D01*
X253820Y134573D02*
Y145573D01*
X273720Y140073D02*
X284720D01*
X279220Y134573D02*
Y145573D01*
X100648Y140073D02*
X111648D01*
X106148Y134573D02*
Y145573D01*
X75248Y140073D02*
X86248D01*
X80748Y134573D02*
Y145573D01*
X270611Y395580D02*
X281611D01*
X276111Y390080D02*
Y401080D01*
X245211Y395580D02*
X256211D01*
X250711Y390080D02*
Y401080D01*
X219811Y395580D02*
X230811D01*
X225311Y390080D02*
Y401080D01*
X94966Y294450D02*
X96966D01*
X95966Y293450D02*
Y295450D01*
X77608Y269140D02*
X79608D01*
X78608Y268140D02*
Y270140D01*
X93933Y234645D02*
X95933D01*
X94932Y233645D02*
Y235645D01*
X86828Y292638D02*
X88828D01*
X87828Y291638D02*
Y293638D01*
X81901Y290827D02*
X83901D01*
X82901Y289827D02*
Y291827D01*
X81181Y319086D02*
X83181D01*
X82181Y318086D02*
Y320086D01*
X85785Y316562D02*
X87785D01*
X86785Y315562D02*
Y317562D01*
X81535Y313311D02*
X83535D01*
X82535Y312311D02*
Y314311D01*
X48256Y310322D02*
X50256D01*
X49256Y309322D02*
Y311322D01*
X165204Y12659D02*
X167204D01*
X166204Y11659D02*
Y13659D01*
X233734Y31863D02*
X235734D01*
X234734Y30863D02*
Y32863D01*
X239947Y92485D02*
X241947D01*
X240947Y91485D02*
Y93485D01*
X51707Y384636D02*
X53707D01*
X52707Y383637D02*
Y385636D01*
X40455Y412426D02*
X42455D01*
X41455Y411426D02*
Y413426D01*
X41819Y382591D02*
X43819D01*
X42819Y381591D02*
Y383591D01*
X25964Y402026D02*
X27964D01*
X26964Y401026D02*
Y403026D01*
X131837Y396741D02*
X133836D01*
X132837Y395741D02*
Y397741D01*
X144282Y380715D02*
X146282D01*
X145282Y379715D02*
Y381715D01*
X226457Y378158D02*
X228457D01*
X227457Y377158D02*
Y379158D01*
X211113Y378158D02*
X213113D01*
X212113Y377158D02*
Y379158D01*
X211283Y394354D02*
X213284D01*
X212283Y393354D02*
Y395354D01*
X217421Y116801D02*
X219421D01*
X218421Y115801D02*
Y117801D01*
X179743Y124643D02*
X181743D01*
X180743Y123644D02*
Y125644D01*
X140702Y105549D02*
X142702D01*
X141702Y104549D02*
Y106549D01*
X132348Y42469D02*
X134348D01*
X133348Y41469D02*
Y43469D01*
X207874Y13315D02*
X209874D01*
X208874Y12315D02*
Y14315D01*
X182471Y12122D02*
X184471D01*
X183471Y11122D02*
Y13122D01*
X151272Y19112D02*
X153272D01*
X152272Y18112D02*
Y20112D01*
X225945Y20476D02*
X227945D01*
X226945Y19476D02*
Y21476D01*
X239755Y45538D02*
X241755D01*
X240755Y44538D02*
Y46537D01*
X231231Y106401D02*
X233230D01*
X232230Y105401D02*
Y107401D01*
X200031Y122939D02*
X202031D01*
X201031Y121939D02*
Y123939D01*
X162183Y121745D02*
X164183D01*
X163183Y120745D02*
Y122745D01*
X50685Y23886D02*
X52685D01*
X51685Y22886D02*
Y24886D01*
X51878Y96172D02*
X53878D01*
X52878Y95172D02*
Y97172D01*
X11302Y184825D02*
X13302D01*
X12302Y183825D02*
Y185826D01*
X62789Y198976D02*
X64789D01*
X63789Y197976D02*
Y199976D01*
X63812Y182950D02*
X65812D01*
X64812Y181950D02*
Y183950D01*
X78645Y198635D02*
X80645D01*
X79645Y197635D02*
Y199635D01*
X85294Y189770D02*
X87294D01*
X86294Y188770D02*
Y190770D01*
X77792Y182439D02*
X79792D01*
X78792Y181439D02*
Y183439D01*
X138827Y336900D02*
X140827D01*
X139827Y335900D02*
Y337900D01*
X119902Y337071D02*
X121903D01*
X120903Y336071D02*
Y338071D01*
X129450Y347129D02*
X131450D01*
X130450Y346129D02*
Y348129D01*
X162524Y307576D02*
X164524D01*
X163524Y306576D02*
Y308576D01*
X162865Y313884D02*
X164865D01*
X163865Y312884D02*
Y314884D01*
X154852Y304678D02*
X156852D01*
X155852Y303678D02*
Y305678D01*
X154000Y310475D02*
X156000D01*
X155000Y309475D02*
Y311475D01*
X141725Y281321D02*
X143725D01*
X142725Y280321D02*
Y282321D01*
X115811Y255919D02*
X117811D01*
X116811Y254919D02*
Y256919D01*
X123142Y255407D02*
X125142D01*
X124142Y254407D02*
Y256407D01*
X130643Y258135D02*
X132643D01*
X131643Y257135D02*
Y259135D01*
X36844Y269436D02*
X38844D01*
X37844Y268436D02*
Y270436D01*
X38326Y278163D02*
X40326D01*
X39327Y277163D02*
Y279163D01*
X42775Y295501D02*
X44775D01*
X43775Y294501D02*
Y296502D01*
X40323Y304342D02*
X42323D01*
X41323Y303342D02*
Y305342D01*
X39924Y316776D02*
X41923D01*
X40924Y315776D02*
Y317776D01*
X70152Y332632D02*
X72152D01*
X71152Y331632D02*
Y333632D01*
X70038Y349229D02*
X72038D01*
X71038Y348229D02*
Y350229D01*
X61597Y340446D02*
X63597D01*
X62597Y339446D02*
Y341446D01*
X55493Y328835D02*
X57493D01*
X56493Y327835D02*
Y329835D01*
X64404Y327334D02*
X66404D01*
X65404Y326334D02*
Y328334D01*
X69554Y316025D02*
X71554D01*
X70554Y315025D02*
Y317025D01*
X81018Y225111D02*
X83018D01*
X82018Y224111D02*
Y226111D01*
X77548Y237516D02*
X79548D01*
X78548Y236516D02*
Y238516D01*
X77548Y229354D02*
X79548D01*
X78548Y228354D02*
Y230354D01*
X104139Y193507D02*
X106139D01*
X105139Y192507D02*
Y194507D01*
X136451Y194348D02*
X138451D01*
X137451Y193348D02*
Y195348D01*
X130056Y183325D02*
X132056D01*
X131056Y182325D02*
Y184325D01*
X119201Y183325D02*
X121201D01*
X120201Y182325D02*
Y184325D01*
X108935Y183325D02*
X110935D01*
X109935Y182325D02*
Y184325D01*
X263817Y67808D02*
X266817D01*
X265317Y66308D02*
Y69308D01*
X108817Y67808D02*
X111817D01*
X110317Y66308D02*
Y69308D01*
X297752Y417386D02*
X299752D01*
X298752Y416386D02*
Y418386D01*
X297752Y357386D02*
X299752D01*
X298752Y356386D02*
Y358386D01*
X297752Y297386D02*
X299752D01*
X298752Y296386D02*
Y298386D01*
X297752Y237386D02*
X299752D01*
X298752Y236386D02*
Y238386D01*
X297752Y177386D02*
X299752D01*
X298752Y176386D02*
Y178386D01*
X297752Y57386D02*
X299752D01*
X298752Y56386D02*
Y58386D01*
X282752Y27386D02*
X284752D01*
X283752Y26386D02*
Y28386D01*
X267752Y417386D02*
X269752D01*
X268752Y416386D02*
Y418386D01*
X252752Y327386D02*
X254752D01*
X253752Y326386D02*
Y328386D01*
X267752Y297386D02*
X269752D01*
X268752Y296386D02*
Y298386D01*
X267752Y237386D02*
X269752D01*
X268752Y236386D02*
Y238386D01*
X252752Y27386D02*
X254752D01*
X253752Y26386D02*
Y28386D01*
X237752Y417386D02*
X239752D01*
X238752Y416386D02*
Y418386D01*
X237752Y297386D02*
X239752D01*
X238752Y296386D02*
Y298386D01*
X237752Y237386D02*
X239752D01*
X238752Y236386D02*
Y238386D01*
X237752Y117386D02*
X239752D01*
X238752Y116386D02*
Y118386D01*
X207752Y417386D02*
X209752D01*
X208752Y416386D02*
Y418386D01*
X207752Y297386D02*
X209752D01*
X208752Y296386D02*
Y298386D01*
X207752Y237386D02*
X209752D01*
X208752Y236386D02*
Y238386D01*
X177752Y417386D02*
X179752D01*
X178752Y416386D02*
Y418386D01*
X162752Y267386D02*
X164752D01*
X163752Y266386D02*
Y268386D01*
X147752Y417386D02*
X149752D01*
X148752Y416386D02*
Y418386D01*
X132752Y267386D02*
X134752D01*
X133752Y266386D02*
Y268386D01*
X147752Y177386D02*
X149752D01*
X148752Y176386D02*
Y178386D01*
X132752Y147386D02*
X134752D01*
X133752Y146386D02*
Y148386D01*
X147752Y117386D02*
X149752D01*
X148752Y116386D02*
Y118386D01*
X132752Y87386D02*
X134752D01*
X133752Y86386D02*
Y88386D01*
X132752Y27386D02*
X134752D01*
X133752Y26386D02*
Y28386D01*
X117752Y417386D02*
X119752D01*
X118752Y416386D02*
Y418386D01*
X102752Y387386D02*
X104752D01*
X103752Y386386D02*
Y388386D01*
X102752Y267386D02*
X104752D01*
X103752Y266386D02*
Y268386D01*
X117752Y177386D02*
X119752D01*
X118752Y176386D02*
Y178386D01*
X117752Y117386D02*
X119752D01*
X118752Y116386D02*
Y118386D01*
X102752Y27386D02*
X104752D01*
X103752Y26386D02*
Y28386D01*
X87752Y417386D02*
X89752D01*
X88752Y416386D02*
Y418386D01*
X72752Y327386D02*
X74752D01*
X73752Y326386D02*
Y328386D01*
X87752Y117386D02*
X89752D01*
X88752Y116386D02*
Y118386D01*
X72752Y87386D02*
X74752D01*
X73752Y86386D02*
Y88386D01*
X87752Y57386D02*
X89752D01*
X88752Y56386D02*
Y58386D01*
X72752Y27386D02*
X74752D01*
X73752Y26386D02*
Y28386D01*
X57752Y417386D02*
X59752D01*
X58752Y416386D02*
Y418386D01*
X57752Y357386D02*
X59752D01*
X58752Y356386D02*
Y358386D01*
X42752Y327386D02*
X44752D01*
X43752Y326386D02*
Y328386D01*
X42752Y147386D02*
X44752D01*
X43752Y146386D02*
Y148386D01*
X57752Y117386D02*
X59752D01*
X58752Y116386D02*
Y118386D01*
X57752Y57386D02*
X59752D01*
X58752Y56386D02*
Y58386D01*
X27752Y417386D02*
X29752D01*
X28752Y416386D02*
Y418386D01*
X12752Y387386D02*
X14752D01*
X13752Y386386D02*
Y388386D01*
X27752Y357386D02*
X29752D01*
X28752Y356386D02*
Y358386D01*
X12752Y327386D02*
X14752D01*
X13752Y326386D02*
Y328386D01*
X12752Y267386D02*
X14752D01*
X13752Y266386D02*
Y268386D01*
X27752Y237386D02*
X29752D01*
X28752Y236386D02*
Y238386D01*
X12752Y207386D02*
X14752D01*
X13752Y206386D02*
Y208386D01*
X12752Y147386D02*
X14752D01*
X13752Y146386D02*
Y148386D01*
X27752Y57386D02*
X29752D01*
X28752Y56386D02*
Y58386D01*
X80331Y278347D02*
X82331D01*
X81331Y277347D02*
Y279347D01*
X118379Y356000D02*
X120379D01*
X119379Y355000D02*
Y357000D01*
X61250Y294387D02*
X64250D01*
X62750Y292887D02*
Y295887D01*
X105586Y331108D02*
X107586D01*
X106586Y330108D02*
Y332108D01*
X100331Y331108D02*
X102331D01*
X101331Y330108D02*
Y332108D01*
X74259Y277876D02*
X76259D01*
X75259Y276876D02*
Y278876D01*
X120402Y320858D02*
X122402D01*
X121402Y319858D02*
Y321858D01*
X69581Y304608D02*
X71581D01*
X70581Y303608D02*
Y305608D01*
X25000Y186000D02*
X27000D01*
X26000Y185000D02*
Y187000D01*
X24515Y105624D02*
X26515D01*
X25515Y104624D02*
Y106624D01*
X121081Y327888D02*
X123081D01*
X122081Y326888D02*
Y328888D01*
X182766Y299858D02*
X184766D01*
X183766Y298858D02*
Y300858D01*
X175091Y279625D02*
X177091D01*
X176091Y278625D02*
Y280625D01*
X54011Y263489D02*
X57011D01*
X55511Y261989D02*
Y264989D01*
X105968Y315457D02*
X107968D01*
X106968Y314457D02*
Y316458D01*
X170617Y290448D02*
X172617D01*
X171617Y289448D02*
Y291448D01*
X93941Y197653D02*
X95941D01*
X94942Y196653D02*
Y198653D01*
M02*
