G04*
G04 #@! TF.GenerationSoftware,Altium Limited,Altium Designer,21.6.4 (81)*
G04*
G04 Layer_Color=255*
%FSLAX44Y44*%
%MOMM*%
G71*
G04*
G04 #@! TF.SameCoordinates,6DE2C221-B64E-46BB-9673-D02FF606FF1F*
G04*
G04*
G04 #@! TF.FilePolarity,Positive*
G04*
G01*
G75*
%ADD10C,0.1000*%
G04:AMPARAMS|DCode=11|XSize=0.5mm|YSize=0.9mm|CornerRadius=0.0625mm|HoleSize=0mm|Usage=FLASHONLY|Rotation=180.000|XOffset=0mm|YOffset=0mm|HoleType=Round|Shape=RoundedRectangle|*
%AMROUNDEDRECTD11*
21,1,0.5000,0.7750,0,0,180.0*
21,1,0.3750,0.9000,0,0,180.0*
1,1,0.1250,-0.1875,0.3875*
1,1,0.1250,0.1875,0.3875*
1,1,0.1250,0.1875,-0.3875*
1,1,0.1250,-0.1875,-0.3875*
%
%ADD11ROUNDEDRECTD11*%
G04:AMPARAMS|DCode=12|XSize=0.85mm|YSize=0.65mm|CornerRadius=0.0325mm|HoleSize=0mm|Usage=FLASHONLY|Rotation=180.000|XOffset=0mm|YOffset=0mm|HoleType=Round|Shape=RoundedRectangle|*
%AMROUNDEDRECTD12*
21,1,0.8500,0.5850,0,0,180.0*
21,1,0.7850,0.6500,0,0,180.0*
1,1,0.0650,-0.3925,0.2925*
1,1,0.0650,0.3925,0.2925*
1,1,0.0650,0.3925,-0.2925*
1,1,0.0650,-0.3925,-0.2925*
%
%ADD12ROUNDEDRECTD12*%
G04:AMPARAMS|DCode=13|XSize=0.8mm|YSize=0.75mm|CornerRadius=0.0375mm|HoleSize=0mm|Usage=FLASHONLY|Rotation=90.000|XOffset=0mm|YOffset=0mm|HoleType=Round|Shape=RoundedRectangle|*
%AMROUNDEDRECTD13*
21,1,0.8000,0.6750,0,0,90.0*
21,1,0.7250,0.7500,0,0,90.0*
1,1,0.0750,0.3375,0.3625*
1,1,0.0750,0.3375,-0.3625*
1,1,0.0750,-0.3375,-0.3625*
1,1,0.0750,-0.3375,0.3625*
%
%ADD13ROUNDEDRECTD13*%
G04:AMPARAMS|DCode=14|XSize=1mm|YSize=0.8mm|CornerRadius=0.08mm|HoleSize=0mm|Usage=FLASHONLY|Rotation=270.000|XOffset=0mm|YOffset=0mm|HoleType=Round|Shape=RoundedRectangle|*
%AMROUNDEDRECTD14*
21,1,1.0000,0.6400,0,0,270.0*
21,1,0.8400,0.8000,0,0,270.0*
1,1,0.1600,-0.3200,-0.4200*
1,1,0.1600,-0.3200,0.4200*
1,1,0.1600,0.3200,0.4200*
1,1,0.1600,0.3200,-0.4200*
%
%ADD14ROUNDEDRECTD14*%
G04:AMPARAMS|DCode=15|XSize=1.4mm|YSize=0.9mm|CornerRadius=0.0675mm|HoleSize=0mm|Usage=FLASHONLY|Rotation=90.000|XOffset=0mm|YOffset=0mm|HoleType=Round|Shape=RoundedRectangle|*
%AMROUNDEDRECTD15*
21,1,1.4000,0.7650,0,0,90.0*
21,1,1.2650,0.9000,0,0,90.0*
1,1,0.1350,0.3825,0.6325*
1,1,0.1350,0.3825,-0.6325*
1,1,0.1350,-0.3825,-0.6325*
1,1,0.1350,-0.3825,0.6325*
%
%ADD15ROUNDEDRECTD15*%
G04:AMPARAMS|DCode=16|XSize=1.4mm|YSize=1.6mm|CornerRadius=0.35mm|HoleSize=0mm|Usage=FLASHONLY|Rotation=0.000|XOffset=0mm|YOffset=0mm|HoleType=Round|Shape=RoundedRectangle|*
%AMROUNDEDRECTD16*
21,1,1.4000,0.9000,0,0,0.0*
21,1,0.7000,1.6000,0,0,0.0*
1,1,0.7000,0.3500,-0.4500*
1,1,0.7000,-0.3500,-0.4500*
1,1,0.7000,-0.3500,0.4500*
1,1,0.7000,0.3500,0.4500*
%
%ADD16ROUNDEDRECTD16*%
G04:AMPARAMS|DCode=17|XSize=0.3mm|YSize=0.5mm|CornerRadius=0.075mm|HoleSize=0mm|Usage=FLASHONLY|Rotation=270.000|XOffset=0mm|YOffset=0mm|HoleType=Round|Shape=RoundedRectangle|*
%AMROUNDEDRECTD17*
21,1,0.3000,0.3500,0,0,270.0*
21,1,0.1500,0.5000,0,0,270.0*
1,1,0.1500,-0.1750,-0.0750*
1,1,0.1500,-0.1750,0.0750*
1,1,0.1500,0.1750,0.0750*
1,1,0.1500,0.1750,-0.0750*
%
%ADD17ROUNDEDRECTD17*%
G04:AMPARAMS|DCode=18|XSize=0.3mm|YSize=0.6mm|CornerRadius=0.075mm|HoleSize=0mm|Usage=FLASHONLY|Rotation=270.000|XOffset=0mm|YOffset=0mm|HoleType=Round|Shape=RoundedRectangle|*
%AMROUNDEDRECTD18*
21,1,0.3000,0.4500,0,0,270.0*
21,1,0.1500,0.6000,0,0,270.0*
1,1,0.1500,-0.2250,-0.0750*
1,1,0.1500,-0.2250,0.0750*
1,1,0.1500,0.2250,0.0750*
1,1,0.1500,0.2250,-0.0750*
%
%ADD18ROUNDEDRECTD18*%
G04:AMPARAMS|DCode=19|XSize=0.3mm|YSize=0.5mm|CornerRadius=0.075mm|HoleSize=0mm|Usage=FLASHONLY|Rotation=180.000|XOffset=0mm|YOffset=0mm|HoleType=Round|Shape=RoundedRectangle|*
%AMROUNDEDRECTD19*
21,1,0.3000,0.3500,0,0,180.0*
21,1,0.1500,0.5000,0,0,180.0*
1,1,0.1500,-0.0750,0.1750*
1,1,0.1500,0.0750,0.1750*
1,1,0.1500,0.0750,-0.1750*
1,1,0.1500,-0.0750,-0.1750*
%
%ADD19ROUNDEDRECTD19*%
G04:AMPARAMS|DCode=20|XSize=0.3mm|YSize=0.6mm|CornerRadius=0.075mm|HoleSize=0mm|Usage=FLASHONLY|Rotation=180.000|XOffset=0mm|YOffset=0mm|HoleType=Round|Shape=RoundedRectangle|*
%AMROUNDEDRECTD20*
21,1,0.3000,0.4500,0,0,180.0*
21,1,0.1500,0.6000,0,0,180.0*
1,1,0.1500,-0.0750,0.2250*
1,1,0.1500,0.0750,0.2250*
1,1,0.1500,0.0750,-0.2250*
1,1,0.1500,-0.0750,-0.2250*
%
%ADD20ROUNDEDRECTD20*%
G04:AMPARAMS|DCode=21|XSize=0.9mm|YSize=0.8mm|CornerRadius=0.1mm|HoleSize=0mm|Usage=FLASHONLY|Rotation=270.000|XOffset=0mm|YOffset=0mm|HoleType=Round|Shape=RoundedRectangle|*
%AMROUNDEDRECTD21*
21,1,0.9000,0.6000,0,0,270.0*
21,1,0.7000,0.8000,0,0,270.0*
1,1,0.2000,-0.3000,-0.3500*
1,1,0.2000,-0.3000,0.3500*
1,1,0.2000,0.3000,0.3500*
1,1,0.2000,0.3000,-0.3500*
%
%ADD21ROUNDEDRECTD21*%
G04:AMPARAMS|DCode=22|XSize=1.5mm|YSize=1.1mm|CornerRadius=0.1375mm|HoleSize=0mm|Usage=FLASHONLY|Rotation=270.000|XOffset=0mm|YOffset=0mm|HoleType=Round|Shape=RoundedRectangle|*
%AMROUNDEDRECTD22*
21,1,1.5000,0.8250,0,0,270.0*
21,1,1.2250,1.1000,0,0,270.0*
1,1,0.2750,-0.4125,-0.6125*
1,1,0.2750,-0.4125,0.6125*
1,1,0.2750,0.4125,0.6125*
1,1,0.2750,0.4125,-0.6125*
%
%ADD22ROUNDEDRECTD22*%
G04:AMPARAMS|DCode=24|XSize=3.5mm|YSize=3.6mm|CornerRadius=0.175mm|HoleSize=0mm|Usage=FLASHONLY|Rotation=0.000|XOffset=0mm|YOffset=0mm|HoleType=Round|Shape=RoundedRectangle|*
%AMROUNDEDRECTD24*
21,1,3.5000,3.2500,0,0,0.0*
21,1,3.1500,3.6000,0,0,0.0*
1,1,0.3500,1.5750,-1.6250*
1,1,0.3500,-1.5750,-1.6250*
1,1,0.3500,-1.5750,1.6250*
1,1,0.3500,1.5750,1.6250*
%
%ADD24ROUNDEDRECTD24*%
G04:AMPARAMS|DCode=25|XSize=0.52mm|YSize=0.725mm|CornerRadius=0.065mm|HoleSize=0mm|Usage=FLASHONLY|Rotation=90.000|XOffset=0mm|YOffset=0mm|HoleType=Round|Shape=RoundedRectangle|*
%AMROUNDEDRECTD25*
21,1,0.5200,0.5950,0,0,90.0*
21,1,0.3900,0.7250,0,0,90.0*
1,1,0.1300,0.2975,0.1950*
1,1,0.1300,0.2975,-0.1950*
1,1,0.1300,-0.2975,-0.1950*
1,1,0.1300,-0.2975,0.1950*
%
%ADD25ROUNDEDRECTD25*%
G04:AMPARAMS|DCode=26|XSize=0.522mm|YSize=0.725mm|CornerRadius=0.0653mm|HoleSize=0mm|Usage=FLASHONLY|Rotation=90.000|XOffset=0mm|YOffset=0mm|HoleType=Round|Shape=RoundedRectangle|*
%AMROUNDEDRECTD26*
21,1,0.5220,0.5945,0,0,90.0*
21,1,0.3915,0.7250,0,0,90.0*
1,1,0.1305,0.2973,0.1958*
1,1,0.1305,0.2973,-0.1958*
1,1,0.1305,-0.2973,-0.1958*
1,1,0.1305,-0.2973,0.1958*
%
%ADD26ROUNDEDRECTD26*%
G04:AMPARAMS|DCode=27|XSize=1.1mm|YSize=1mm|CornerRadius=0.05mm|HoleSize=0mm|Usage=FLASHONLY|Rotation=180.000|XOffset=0mm|YOffset=0mm|HoleType=Round|Shape=RoundedRectangle|*
%AMROUNDEDRECTD27*
21,1,1.1000,0.9000,0,0,180.0*
21,1,1.0000,1.0000,0,0,180.0*
1,1,0.1000,-0.5000,0.4500*
1,1,0.1000,0.5000,0.4500*
1,1,0.1000,0.5000,-0.4500*
1,1,0.1000,-0.5000,-0.4500*
%
%ADD27ROUNDEDRECTD27*%
G04:AMPARAMS|DCode=28|XSize=1.2mm|YSize=1.05mm|CornerRadius=0.105mm|HoleSize=0mm|Usage=FLASHONLY|Rotation=90.000|XOffset=0mm|YOffset=0mm|HoleType=Round|Shape=RoundedRectangle|*
%AMROUNDEDRECTD28*
21,1,1.2000,0.8400,0,0,90.0*
21,1,0.9900,1.0500,0,0,90.0*
1,1,0.2100,0.4200,0.4950*
1,1,0.2100,0.4200,-0.4950*
1,1,0.2100,-0.4200,-0.4950*
1,1,0.2100,-0.4200,0.4950*
%
%ADD28ROUNDEDRECTD28*%
G04:AMPARAMS|DCode=29|XSize=0.85mm|YSize=0.65mm|CornerRadius=0.0325mm|HoleSize=0mm|Usage=FLASHONLY|Rotation=90.000|XOffset=0mm|YOffset=0mm|HoleType=Round|Shape=RoundedRectangle|*
%AMROUNDEDRECTD29*
21,1,0.8500,0.5850,0,0,90.0*
21,1,0.7850,0.6500,0,0,90.0*
1,1,0.0650,0.2925,0.3925*
1,1,0.0650,0.2925,-0.3925*
1,1,0.0650,-0.2925,-0.3925*
1,1,0.0650,-0.2925,0.3925*
%
%ADD29ROUNDEDRECTD29*%
G04:AMPARAMS|DCode=30|XSize=0.8mm|YSize=0.75mm|CornerRadius=0.0375mm|HoleSize=0mm|Usage=FLASHONLY|Rotation=180.000|XOffset=0mm|YOffset=0mm|HoleType=Round|Shape=RoundedRectangle|*
%AMROUNDEDRECTD30*
21,1,0.8000,0.6750,0,0,180.0*
21,1,0.7250,0.7500,0,0,180.0*
1,1,0.0750,-0.3625,0.3375*
1,1,0.0750,0.3625,0.3375*
1,1,0.0750,0.3625,-0.3375*
1,1,0.0750,-0.3625,-0.3375*
%
%ADD30ROUNDEDRECTD30*%
%ADD45C,10.2000*%
G04:AMPARAMS|DCode=54|XSize=1.7mm|YSize=1.7mm|CornerRadius=0.6375mm|HoleSize=0mm|Usage=FLASHONLY|Rotation=180.000|XOffset=0mm|YOffset=0mm|HoleType=Round|Shape=RoundedRectangle|*
%AMROUNDEDRECTD54*
21,1,1.7000,0.4250,0,0,180.0*
21,1,0.4250,1.7000,0,0,180.0*
1,1,1.2750,-0.2125,0.2125*
1,1,1.2750,0.2125,0.2125*
1,1,1.2750,0.2125,-0.2125*
1,1,1.2750,-0.2125,-0.2125*
%
%ADD54ROUNDEDRECTD54*%
%ADD56C,1.6250*%
%ADD57C,1.3000*%
%ADD58C,1.0000*%
G04:AMPARAMS|DCode=64|XSize=1.7mm|YSize=1.7mm|CornerRadius=0.085mm|HoleSize=0mm|Usage=FLASHONLY|Rotation=180.000|XOffset=0mm|YOffset=0mm|HoleType=Round|Shape=RoundedRectangle|*
%AMROUNDEDRECTD64*
21,1,1.7000,1.5300,0,0,180.0*
21,1,1.5300,1.7000,0,0,180.0*
1,1,0.1700,-0.7650,0.7650*
1,1,0.1700,0.7650,0.7650*
1,1,0.1700,0.7650,-0.7650*
1,1,0.1700,-0.7650,-0.7650*
%
%ADD64ROUNDEDRECTD64*%
D10*
X33576Y128270D02*
G03*
X33576Y136270I0J4000D01*
G01*
Y158270D02*
G03*
X33576Y166270I0J4000D01*
G01*
X0Y20000D02*
G03*
X20000Y-0I20000J0D01*
G01*
X302000D02*
G03*
X322000Y20000I0J20000D01*
G01*
X322000Y421000D02*
G03*
X302000Y441000I-20000J0D01*
G01*
X20000D02*
G03*
X0Y421000I0J-20000D01*
G01*
X0Y20000D02*
Y128270D01*
X0Y166270D02*
Y421000D01*
X0Y128270D02*
X33576D01*
Y136270D02*
Y158270D01*
X0Y166270D02*
X33576D01*
X20000Y441000D02*
X302000Y441000D01*
X322000Y421000D02*
X322000Y20000D01*
X20000Y-0D02*
X302000D01*
D11*
X88482Y205111D02*
D03*
X94982D02*
D03*
X101482D02*
D03*
Y226611D02*
D03*
X94982D02*
D03*
X88482D02*
D03*
D12*
X123453Y278156D02*
D03*
Y262656D02*
D03*
X159773Y187479D02*
D03*
Y202979D02*
D03*
X96331Y338622D02*
D03*
Y354122D02*
D03*
D13*
X62750Y304000D02*
D03*
X49250D02*
D03*
X128557Y290358D02*
D03*
X142057D02*
D03*
X134057Y305358D02*
D03*
X147557D02*
D03*
X18045Y278594D02*
D03*
X31545D02*
D03*
X49250Y317000D02*
D03*
X62750D02*
D03*
X68268Y190145D02*
D03*
X54768D02*
D03*
D14*
X233147Y344865D02*
D03*
X222147Y329865D02*
D03*
Y344865D02*
D03*
X233147Y329865D02*
D03*
D15*
X54768Y215861D02*
D03*
X74768D02*
D03*
D16*
X10515Y96624D02*
D03*
X40515D02*
D03*
Y24624D02*
D03*
X10515D02*
D03*
D17*
X116581Y290358D02*
D03*
Y320358D02*
D03*
X76081D02*
D03*
Y290358D02*
D03*
D18*
X116081Y295358D02*
D03*
Y300358D02*
D03*
Y305358D02*
D03*
Y310358D02*
D03*
Y315358D02*
D03*
X76581D02*
D03*
Y310358D02*
D03*
Y305358D02*
D03*
Y300358D02*
D03*
Y295358D02*
D03*
D19*
X81331Y285108D02*
D03*
X111331D02*
D03*
X81331Y325608D02*
D03*
X111331D02*
D03*
D20*
X86331Y285608D02*
D03*
X91331D02*
D03*
X96331D02*
D03*
X101331D02*
D03*
X106331D02*
D03*
X96331Y325108D02*
D03*
X91331D02*
D03*
X86331D02*
D03*
X106331D02*
D03*
X101331D02*
D03*
D21*
X221647Y196032D02*
D03*
Y214032D02*
D03*
X233647Y196032D02*
D03*
Y214032D02*
D03*
D22*
X235147Y286198D02*
D03*
X235147Y256198D02*
D03*
X220147Y286198D02*
D03*
X220147Y256198D02*
D03*
D24*
X265317Y67808D02*
D03*
X110317D02*
D03*
D25*
X33201Y302108D02*
D03*
X16451D02*
D03*
D26*
Y293888D02*
D03*
X33201D02*
D03*
D27*
X150307Y321721D02*
D03*
X131307Y336721D02*
D03*
X150307D02*
D03*
X131307Y321721D02*
D03*
D28*
X11576Y121270D02*
D03*
Y173269D02*
D03*
X26076D02*
D03*
Y121270D02*
D03*
D29*
X128541Y215861D02*
D03*
X113041D02*
D03*
X71409Y340606D02*
D03*
X86909D02*
D03*
X79441Y190145D02*
D03*
X94942D02*
D03*
X74279Y253993D02*
D03*
X58780D02*
D03*
X196341Y271198D02*
D03*
X180841D02*
D03*
X196341Y289448D02*
D03*
X180841D02*
D03*
X196341Y252948D02*
D03*
X180841D02*
D03*
X196341Y189773D02*
D03*
X180841D02*
D03*
X196341Y205032D02*
D03*
X180841D02*
D03*
X196341Y220375D02*
D03*
X180841D02*
D03*
X196341Y323002D02*
D03*
X180841D02*
D03*
X196341Y337365D02*
D03*
X180841D02*
D03*
X196341Y352627D02*
D03*
X180841D02*
D03*
D30*
X163808Y322471D02*
D03*
Y335971D02*
D03*
X126924Y191459D02*
D03*
Y204959D02*
D03*
X114373Y191459D02*
D03*
Y204959D02*
D03*
D45*
X187817Y67808D02*
D03*
D54*
X264220Y337365D02*
D03*
X41229Y396580D02*
D03*
X92229D02*
D03*
X66829D02*
D03*
X289020Y271198D02*
D03*
X145430Y395580D02*
D03*
X170830D02*
D03*
X289620Y205032D02*
D03*
X253820Y140073D02*
D03*
X106148D02*
D03*
X250711Y395580D02*
D03*
X225311D02*
D03*
D56*
X24826Y314628D02*
D03*
D57*
X94942Y172988D02*
D03*
X85598Y17284D02*
D03*
X94942Y257993D02*
D03*
X159773Y216959D02*
D03*
D58*
X300865Y25573D02*
D03*
Y106477D02*
D03*
X19647Y372782D02*
D03*
X21022Y342271D02*
D03*
D64*
X289620Y337365D02*
D03*
X117629Y396580D02*
D03*
X263620Y271198D02*
D03*
X196230Y395580D02*
D03*
X264220Y205032D02*
D03*
X279220Y140073D02*
D03*
X80748D02*
D03*
X276111Y395580D02*
D03*
M02*
