G04*
G04 #@! TF.GenerationSoftware,Altium Limited,Altium Designer,21.6.4 (81)*
G04*
G04 Layer_Color=16711935*
%FSLAX44Y44*%
%MOMM*%
G71*
G04*
G04 #@! TF.SameCoordinates,6DE2C221-B64E-46BB-9673-D02FF606FF1F*
G04*
G04*
G04 #@! TF.FilePolarity,Positive*
G04*
G01*
G75*
%ADD10C,0.1000*%
D10*
X33576Y128270D02*
G03*
X33576Y136270I0J4000D01*
G01*
Y158270D02*
G03*
X33576Y166270I0J4000D01*
G01*
X0Y20000D02*
G03*
X20000Y-0I20000J0D01*
G01*
X302000D02*
G03*
X322000Y20000I0J20000D01*
G01*
X322000Y421000D02*
G03*
X302000Y441000I-20000J0D01*
G01*
X20000D02*
G03*
X0Y421000I0J-20000D01*
G01*
X0Y20000D02*
Y128270D01*
X0Y166270D02*
Y421000D01*
X0Y128270D02*
X33576D01*
Y136270D02*
Y158270D01*
X0Y166270D02*
X33576D01*
X20000Y441000D02*
X302000Y441000D01*
X322000Y421000D02*
X322000Y20000D01*
X20000Y-0D02*
X302000D01*
X33576Y128270D02*
G03*
X33576Y136270I0J4000D01*
G01*
Y158270D02*
G03*
X33576Y166270I0J4000D01*
G01*
X0Y20000D02*
G03*
X20000Y-0I20000J0D01*
G01*
X302000D02*
G03*
X322000Y20000I0J20000D01*
G01*
X322000Y421000D02*
G03*
X302000Y441000I-20000J0D01*
G01*
X20000D02*
G03*
X0Y421000I0J-20000D01*
G01*
X0Y20000D02*
Y128270D01*
X0Y166270D02*
Y421000D01*
X0Y128270D02*
X33576D01*
Y136270D02*
Y158270D01*
X0Y166270D02*
X33576D01*
X20000Y441000D02*
X302000Y441000D01*
X322000Y421000D02*
X322000Y20000D01*
X20000Y-0D02*
X302000D01*
M02*
